<svg xmlns="http://www.w3.org/2000/svg" viewBox="0 0 100 100" width="800" height="800"><defs>
<linearGradient id="gR" x1="0" y1="0" x2="0" y2="1"><stop offset="0" stop-color="#ff8277"/><stop offset="1" stop-color="#d12e45"/></linearGradient>
<linearGradient id="gO" x1="0" y1="0" x2="0" y2="1"><stop offset="0" stop-color="#ffb862"/><stop offset="1" stop-color="#ec6a2b"/></linearGradient>
<linearGradient id="gY" x1="0" y1="0" x2="0" y2="1"><stop offset="0" stop-color="#fff2a0"/><stop offset="1" stop-color="#ffc62e"/></linearGradient>
<linearGradient id="gG" x1="0" y1="0" x2="0" y2="1"><stop offset="0" stop-color="#a4ea72"/><stop offset="1" stop-color="#32a047"/></linearGradient>
<linearGradient id="gT" x1="0" y1="0" x2="0" y2="1"><stop offset="0" stop-color="#78e8da"/><stop offset="1" stop-color="#1c9ca6"/></linearGradient>
<linearGradient id="gB" x1="0" y1="0" x2="0" y2="1"><stop offset="0" stop-color="#86ccff"/><stop offset="1" stop-color="#3470de"/></linearGradient>
<linearGradient id="gP" x1="0" y1="0" x2="0" y2="1"><stop offset="0" stop-color="#cfaaff"/><stop offset="1" stop-color="#7348cc"/></linearGradient>
<linearGradient id="gK" x1="0" y1="0" x2="0" y2="1"><stop offset="0" stop-color="#ffa6d0"/><stop offset="1" stop-color="#e5539a"/></linearGradient>
<linearGradient id="gN" x1="0" y1="0" x2="0" y2="1"><stop offset="0" stop-color="#bf8a5f"/><stop offset="1" stop-color="#6a4125"/></linearGradient>
<linearGradient id="gC" x1="0" y1="0" x2="0" y2="1"><stop offset="0" stop-color="#fffaf0"/><stop offset="1" stop-color="#ecd7b8"/></linearGradient>
<linearGradient id="gW" x1="0" y1="0" x2="0" y2="1"><stop offset="0" stop-color="#ffffff"/><stop offset="1" stop-color="#dfe9f4"/></linearGradient>
<linearGradient id="gS" x1="0" y1="0" x2="0" y2="1"><stop offset="0" stop-color="#bccadc"/><stop offset="1" stop-color="#697c96"/></linearGradient>
<linearGradient id="gD" x1="0" y1="0" x2="0" y2="1"><stop offset="0" stop-color="#6070b0"/><stop offset="1" stop-color="#262f5c"/></linearGradient>
<linearGradient id="gA" x1="0" y1="0" x2="0" y2="1"><stop offset="0" stop-color="#ffe680"/><stop offset="1" stop-color="#e3a012"/></linearGradient>
<linearGradient id="gU" x1="0" y1="0" x2="0" y2="1"><stop offset="0" stop-color="#f4d49a"/><stop offset="1" stop-color="#cc9648"/></linearGradient>
<linearGradient id="gL" x1="0" y1="0" x2="0" y2="1"><stop offset="0" stop-color="#ffffff"/><stop offset="1" stop-color="#d4c8ff"/></linearGradient>
<linearGradient id="gSF" x1="0" y1="0" x2="0" y2="1"><stop offset="0" stop-color="#2f6f86"/><stop offset=".55" stop-color="#6cc1a6"/><stop offset="1" stop-color="#c7e8a0"/></linearGradient>
<linearGradient id="gSW" x1="0" y1="0" x2="0" y2="1"><stop offset="0" stop-color="#0f3b7c"/><stop offset=".6" stop-color="#2f86d0"/><stop offset="1" stop-color="#8fe0f0"/></linearGradient>
<linearGradient id="gSM" x1="0" y1="0" x2="0" y2="1"><stop offset="0" stop-color="#e48fb2"/><stop offset=".55" stop-color="#f7c4b8"/><stop offset="1" stop-color="#fff0cc"/></linearGradient>
<linearGradient id="gSD" x1="0" y1="0" x2="0" y2="1"><stop offset="0" stop-color="#241a66"/><stop offset=".55" stop-color="#7a4bc2"/><stop offset="1" stop-color="#f2b0d8"/></linearGradient>
<linearGradient id="gSN" x1="0" y1="0" x2="0" y2="1"><stop offset="0" stop-color="#141848"/><stop offset=".6" stop-color="#4f45a6"/><stop offset="1" stop-color="#f3c58a"/></linearGradient>
<linearGradient id="gSC" x1="0" y1="0" x2="0" y2="1"><stop offset="0" stop-color="#08507c"/><stop offset=".6" stop-color="#1ca0b6"/><stop offset="1" stop-color="#a4ead8"/></linearGradient>
<linearGradient id="gRay" x1="0" y1="0" x2="0" y2="1"><stop offset="0" stop-color="#fff" stop-opacity=".55"/><stop offset="1" stop-color="#fff" stop-opacity="0"/></linearGradient>
<linearGradient id="gCone" x1="0" y1="0" x2="0" y2="1"><stop offset="0" stop-color="#fff2a0" stop-opacity=".7"/><stop offset="1" stop-color="#fff2a0" stop-opacity="0"/></linearGradient>
<linearGradient id="gDoor" x1="0" y1="0" x2="0" y2="1"><stop offset="0" stop-color="#fffbe0"/><stop offset=".5" stop-color="#ffe27a"/><stop offset="1" stop-color="#ffb938"/></linearGradient>
<radialGradient id="gGlow" cx=".5" cy=".5" r=".5"><stop offset="0" stop-color="#ffe27a" stop-opacity=".8"/><stop offset="1" stop-color="#ffe27a" stop-opacity="0"/></radialGradient>
<radialGradient id="gMoonGlow" cx=".5" cy=".5" r=".5"><stop offset="0" stop-color="#fff3c4" stop-opacity=".7"/><stop offset="1" stop-color="#fff3c4" stop-opacity="0"/></radialGradient>

<linearGradient id="gSDeep" x1="0" y1="0" x2="0" y2="1"><stop offset="0" stop-color="#06193a"/><stop offset=".6" stop-color="#0d4a7a"/><stop offset="1" stop-color="#1b8aa0"/></linearGradient>
<linearGradient id="gSStorm" x1="0" y1="0" x2="0" y2="1"><stop offset="0" stop-color="#1b1f45"/><stop offset=".55" stop-color="#4a4f86"/><stop offset="1" stop-color="#8d86b8"/></linearGradient>
<linearGradient id="gSCave" x1="0" y1="0" x2="0" y2="1"><stop offset="0" stop-color="#1a1330"/><stop offset=".6" stop-color="#2d2a5a"/><stop offset="1" stop-color="#3a7a80"/></linearGradient>
<linearGradient id="gSDawn" x1="0" y1="0" x2="0" y2="1"><stop offset="0" stop-color="#6a7fd0"/><stop offset=".45" stop-color="#f2a8c8"/><stop offset="1" stop-color="#ffe3a8"/></linearGradient>
<linearGradient id="gSTwi" x1="0" y1="0" x2="0" y2="1"><stop offset="0" stop-color="#3a3a8a"/><stop offset=".55" stop-color="#a98ad8"/><stop offset="1" stop-color="#ffcfa8"/></linearGradient>
<linearGradient id="gSRose" x1="0" y1="0" x2="0" y2="1"><stop offset="0" stop-color="#2a1230"/><stop offset=".6" stop-color="#6a2a58"/><stop offset="1" stop-color="#e07a8a"/></linearGradient>
<linearGradient id="gSStage" x1="0" y1="0" x2="0" y2="1"><stop offset="0" stop-color="#5a0f2a"/><stop offset=".6" stop-color="#b02a48"/><stop offset="1" stop-color="#f08a5a"/></linearGradient>
<linearGradient id="gSVoid" x1="0" y1="0" x2="0" y2="1"><stop offset="0" stop-color="#05061a"/><stop offset=".6" stop-color="#1a1650"/><stop offset="1" stop-color="#5a3a9a"/></linearGradient>
<linearGradient id="gSMoon" x1="0" y1="0" x2="0" y2="1"><stop offset="0" stop-color="#0a1f4a"/><stop offset=".6" stop-color="#1a5a8a"/><stop offset="1" stop-color="#7ad0d8"/></linearGradient>
<linearGradient id="gSStormSea" x1="0" y1="0" x2="0" y2="1"><stop offset="0" stop-color="#27456a"/><stop offset=".55" stop-color="#3d8a9a"/><stop offset="1" stop-color="#b8e0d0"/></linearGradient>
</defs><style>.fR{fill:url(#gR)}.fO{fill:url(#gO)}.fY{fill:url(#gY)}.fG{fill:url(#gG)}.fT{fill:url(#gT)}.fB{fill:url(#gB)}.fP{fill:url(#gP)}.fK{fill:url(#gK)} .fN{fill:url(#gN)}.fC{fill:url(#gC)}.fW{fill:url(#gW)}.fS{fill:url(#gS)}.fD{fill:url(#gD)}.fA{fill:url(#gA)}.fU{fill:url(#gU)}.fL{fill:url(#gL)} .sh{fill:rgba(40,20,70,.2)}.hl{fill:#fff;opacity:.72}.ink{fill:#3a2a33} svg{display:block;overflow:visible}svg path,svg circle,svg ellipse{stroke-linecap:round;stroke-linejoin:round}</style><ellipse cx="50" cy="94" rx="38" ry="4" fill="#1a2a20" opacity=".3"/><path d="M10 22C26 4 40 10 54 2 68-4 82 6 94 2" stroke="#7de0c8" stroke-width="5" fill="none" opacity=".5"/><path d="M6 32C24 14 44 22 60 10 74 0 86 12 98 8" stroke="#ff9ad0" stroke-width="4" fill="none" opacity=".45"/><path class="fN" d="M60 70l3 20h6l-2-20zM34 70l-3 20h6l3-20z"/><path class="sh" d="M60 70l3 20h6l-2-20zM34 70l-3 20h6l3-20z" opacity=".5"/><path class="fU" d="M26 58c0-12 14-18 30-16 14 2 24 8 24 18 0 9-10 14-24 14-18 0-30-4-30-16z"/><path class="fC" d="M30 66c8 6 28 8 42 2-4 8-14 10-24 10-10 0-16-4-18-12z"/><circle class="fW" cx="46" cy="52" r="1.700" opacity=".85"/><circle class="fW" cx="56" cy="48" r="1.500" opacity=".85"/><circle class="fW" cx="66" cy="52" r="1.700" opacity=".85"/><circle class="fW" cx="52" cy="58" r="1.300" opacity=".85"/><circle class="fW" cx="62" cy="60" r="1.300" opacity=".85"/><circle class="fW" cx="40" cy="58" r="1.300" opacity=".85"/><path class="fU" d="M70 70l2 20h6l-3-22zM42 72l-2 18h6l2-20z"/><path class="ink" d="M72 90h6v3h-7zM40 90h6v3h-7zM63 90h6v3h-7zM31 90h6v3h-7z"/><path class="fU" d="M32 54C26 44 24 34 28 24l10-2c0 10 4 20 12 28z"/><path class="fC" d="M34 44c-2 6 0 10 4 12 0-6-1-10-4-12z"/><path class="fU" d="M16 30c0-8 8-12 16-10l6 4-2 10-8 8c-6 2-12-2-12-12z"/><path class="fC" d="M14 34c2 4 6 6 10 6l4-6c-4 2-10 2-14 0z"/><ellipse class="ink" cx="14.500" cy="35" rx="1.400" ry="1.100"/><path d="M23 27q2.500 2.500 5 0" stroke="#3a2a33" stroke-width="1.100" fill="none"/><path class="fU" d="M32 18l9-9-1 12z"/><path class="fK" d="M34 17l5-5v7z"/><g fill="none" stroke="#ffe27a" stroke-width="2.600" stroke-linecap="round"><path d="M30 20C28 10 20 6 14 8M24 12L20 4M30 20C34 10 42 6 48 8M40 10L44 2M34 15l11 2"/></g><g fill="none" stroke="#fff7c8" stroke-width=".9" stroke-linecap="round"><path d="M30 20C28 10 20 6 14 8M30 20C34 10 42 6 48 8"/></g><circle cx="14" cy="8" r="6" fill="url(#gGlow)"/><circle cx="20" cy="4" r="5" fill="url(#gGlow)"/><circle cx="48" cy="8" r="6" fill="url(#gGlow)"/><circle cx="44" cy="2" r="5" fill="url(#gGlow)"/><circle class="fY" cx="14" cy="8" r="1.700"/><circle class="fY" cx="20" cy="4" r="1.500"/><circle class="fY" cx="48" cy="8" r="1.700"/><circle class="fY" cx="44" cy="2" r="1.500"/><path class="fG" d="M8 92l3-12 4 12zM86 92l2-10 4 10zM46 94l2-9 3 9z"/><circle class="fK" cx="38" cy="91" r="2.600"/><circle class="fY" cx="38" cy="91" r="1"/><circle class="fK" cx="68" cy="92" r="2.400"/><circle class="fY" cx="68" cy="92" r=".9"/><circle class="fK" cx="54" cy="93" r="2"/><path class="fY" d="M90 36l1.12 2.88 2.88 1.12-2.88 1.12-1.12 2.88-1.12-2.88-2.88-1.12 2.88-1.12z"/><path class="fW" d="M10 49l0.8400000000000001 2.16 2.16 0.8400000000000001-2.16 0.8400000000000001-0.8400000000000001 2.16-0.8400000000000001-2.16-2.16-0.8400000000000001 2.16-0.8400000000000001z"/></svg>
