<svg xmlns="http://www.w3.org/2000/svg" viewBox="0.652 0.899 22.696 22.696" width="512" height="512" stroke-linecap="round" stroke-linejoin="round">
<defs>
<linearGradient id="gA" x1="0" y1="0" x2="0" y2="1"><stop offset="0" stop-color="#ffe680"/><stop offset="1" stop-color="#e3a012"/></linearGradient>
<linearGradient id="gN" x1="0" y1="0" x2="0" y2="1"><stop offset="0" stop-color="#bf8a5f"/><stop offset="1" stop-color="#6a4125"/></linearGradient>
<linearGradient id="gGr" x1="0" y1="0" x2="0" y2="1"><stop offset="0" stop-color="#eef1f6"/><stop offset="1" stop-color="#aab4c4"/></linearGradient>
</defs>
<g transform="rotate(45 12 12)"><path fill="url(#gGr)" d="M11 1.500h2l.8 13.500h-3.600z"/><path fill="rgba(40,20,70,.2)" d="M12 1.500h1l.8 13.500H12z" opacity=".3"/><rect fill="url(#gA)" x="8" y="14.800" width="8" height="2" rx=".8"/><rect fill="url(#gN)" x="10.800" y="16.800" width="2.400" height="4.200" rx=".6"/><circle fill="url(#gA)" cx="12" cy="21.800" r="1.400"/></g><g transform="rotate(-45 12 12)"><path fill="url(#gGr)" d="M11 1.500h2l.8 13.500h-3.600z"/><path fill="rgba(40,20,70,.2)" d="M12 1.500h1l.8 13.500H12z" opacity=".3"/><rect fill="url(#gA)" x="8" y="14.800" width="8" height="2" rx=".8"/><rect fill="url(#gN)" x="10.800" y="16.800" width="2.400" height="4.200" rx=".6"/><circle fill="url(#gA)" cx="12" cy="21.800" r="1.400"/></g>
</svg>
