<svg xmlns="http://www.w3.org/2000/svg" viewBox="-0.85 -0.4 25 25" width="512" height="512" stroke-linecap="round" stroke-linejoin="round">
<defs>
<linearGradient id="gK" x1="0" y1="0" x2="0" y2="1"><stop offset="0" stop-color="#ffa6d0"/><stop offset="1" stop-color="#e5539a"/></linearGradient>
<linearGradient id="gA" x1="0" y1="0" x2="0" y2="1"><stop offset="0" stop-color="#ffe680"/><stop offset="1" stop-color="#e3a012"/></linearGradient>
<linearGradient id="gY" x1="0" y1="0" x2="0" y2="1"><stop offset="0" stop-color="#fff2a0"/><stop offset="1" stop-color="#ffc62e"/></linearGradient>
<linearGradient id="gT" x1="0" y1="0" x2="0" y2="1"><stop offset="0" stop-color="#78e8da"/><stop offset="1" stop-color="#1c9ca6"/></linearGradient>
</defs>
<path d="M20 22C8 22 2 17 7 13s14-2 12-7-8-3-11-1" stroke="#0e6f80" stroke-width="5.500" fill="none" stroke-linecap="round"/><path d="M20 22C8 22 2 17 7 13s14-2 12-7-8-3-11-1" stroke="#2fb8b8" stroke-width="3.800" fill="none" stroke-linecap="round"/><path d="M20 22C8 22 2 17 7 13s14-2 12-7-8-3-11-1" stroke="#e8fff6" stroke-width="1.300" fill="none" stroke-dasharray=".5 3.200" stroke-linecap="round" opacity=".9"/><path fill="url(#gT)" d="M3 4C3 1.500 6 .5 9 1.500l3 1.500-1.500 3-4 2C4 8.500 3 6.500 3 4z"/><path fill="url(#gK)" d="M8.500 1.500c1.500-1 3-1.500 4-1-.5 1.500-1.500 2-3 2.200z"/><path d="M5 1.200C3.500-.2 1.800 0 .8 1M3 3.500c-1.500.2-2.200 1.300-2 2.500" stroke="#ffe27a" stroke-width="1" fill="none" stroke-linecap="round"/><circle fill="url(#gY)" cx="6.500" cy="4.500" r="1.100"/><circle fill="#3a2a33" cx="6.600" cy="4.500" r=".5"/><path fill="url(#gA)" d="M20 22l2.500-1.500L21 24z"/><path fill="url(#gK)" d="M12 7.500c1-2 2.500-2.800 4-2.500-.5 1.500-2 2.500-4 2.500z" opacity=".95"/>
</svg>
