<svg xmlns="http://www.w3.org/2000/svg" viewBox="1.11 0.9 21.779 21.779" width="512" height="512" stroke-linecap="round" stroke-linejoin="round">
<defs>
<linearGradient id="gW" x1="0" y1="0" x2="0" y2="1"><stop offset="0" stop-color="#ffffff"/><stop offset="1" stop-color="#dfe9f4"/></linearGradient>
<linearGradient id="gP" x1="0" y1="0" x2="0" y2="1"><stop offset="0" stop-color="#cfaaff"/><stop offset="1" stop-color="#7348cc"/></linearGradient>
</defs>
<g fill="none" stroke-linecap="round"><path d="M6.500 14C3 15 1.500 18 3 20.500c1.500 1.500 3.500 0 2.500-1.800" stroke="#7a4fd0" stroke-width="2.800"/><path d="M9 16c-1.500 2.500-1.500 5 .5 6 1.800.5 2.500-1.500 1.200-2.200" stroke="#7a4fd0" stroke-width="2.800"/><path d="M15 16c1.500 2.500 1.500 5-.5 6-1.800.5-2.500-1.500-1.200-2.200" stroke="#7a4fd0" stroke-width="2.800"/><path d="M17.500 14c3.500 1 5 4 3.500 6.500-1.500 1.500-3.500 0-2.500-1.800" stroke="#7a4fd0" stroke-width="2.800"/></g><path fill="url(#gP)" d="M3.500 10C3.500 4.500 7.500 1.500 12 1.500s8.500 3 8.500 8.500c0 4-3.500 6.800-8.500 6.800S3.500 14 3.500 10z"/><path fill="rgba(40,20,70,.2)" d="M12 1.500c5 0 8.500 3 8.500 8.500 0 4-3.500 6.800-8.500 6.800 3-4 3-11.500 0-15.300z" opacity=".3"/><circle fill="url(#gW)" cx="8.500" cy="10.500" r="2.200"/><circle fill="url(#gW)" cx="15.500" cy="10.500" r="2.200"/><circle fill="#3a2a33" cx="8.800" cy="10.800" r="1.100"/><circle fill="#3a2a33" cx="15.800" cy="10.800" r="1.100"/><path d="M10.500 14.200q1.500 1.200 3 0" stroke="#3a2a5a" stroke-width=".8" fill="none" stroke-linecap="round"/><ellipse fill="#fff" opacity=".72" cx="8" cy="5" rx="2.2" ry="1" transform="rotate(-30 8 5)"/>
</svg>
