<svg xmlns="http://www.w3.org/2000/svg" viewBox="1 0.1 22 22" width="512" height="512" stroke-linecap="round" stroke-linejoin="round">
<defs>
<linearGradient id="gB" x1="0" y1="0" x2="0" y2="1"><stop offset="0" stop-color="#86ccff"/><stop offset="1" stop-color="#3470de"/></linearGradient>
<linearGradient id="gY" x1="0" y1="0" x2="0" y2="1"><stop offset="0" stop-color="#fff2a0"/><stop offset="1" stop-color="#ffc62e"/></linearGradient>
<linearGradient id="gP" x1="0" y1="0" x2="0" y2="1"><stop offset="0" stop-color="#cfaaff"/><stop offset="1" stop-color="#7348cc"/></linearGradient>
<linearGradient id="gH" x1="0" y1="0" x2="0" y2="1"><stop offset="0" stop-color="#9a6a46"/><stop offset="1" stop-color="#4a2a18"/></linearGradient>
</defs>
<circle fill="url(#gY)" cx="12" cy="4.500" r="3"/><path fill="url(#gH)" d="M9 4.200c0-2.500 2-3.500 3.200-3.500 1.800 0 3 1.200 2.800 3.500-1-1-2-1.500-3-1.500s-2 .5-3 1.500z" opacity="0"/><path fill="url(#gP)" d="M8 9c0-1.500 1.800-2 4-2s4 .5 4 2l1 6.500H7z"/><path fill="url(#gY)" d="M5 11.500l3 4M19 11.500l-3 4" stroke="#ffd23a" stroke-width="2.200" stroke-linecap="round"/><circle fill="url(#gY)" cx="4.500" cy="11" r="1.300"/><circle fill="url(#gY)" cx="19.500" cy="11" r="1.300"/><path fill="url(#gB)" d="M2.500 19.500c1-3 3.500-4.500 6-4.500l3.500 2 3.500-2c2.500 0 5 1.500 6 4.500-2 1.500-5 2-9.500 2s-7.500-.5-9.500-2z"/><path fill="rgba(40,20,70,.2)" d="M12 17l3.500-2c2.500 0 5 1.500 6 4.500-2 1.500-5 2-9.500 2z" opacity=".22"/><path d="M10.800 4.500q.6.4 1.200 0M12.600 4.500q.6.4 1.200 0" stroke="#3a2a33" stroke-width=".6" fill="none" stroke-linecap="round"/>
</svg>
