<svg xmlns="http://www.w3.org/2000/svg" viewBox="1.4 1.4 21.2 21.2" width="512" height="512" stroke-linecap="round" stroke-linejoin="round">
<defs>
<linearGradient id="gR" x1="0" y1="0" x2="0" y2="1"><stop offset="0" stop-color="#ff8277"/><stop offset="1" stop-color="#d12e45"/></linearGradient>
<linearGradient id="gK" x1="0" y1="0" x2="0" y2="1"><stop offset="0" stop-color="#ffa6d0"/><stop offset="1" stop-color="#e5539a"/></linearGradient>
</defs>
<path fill="url(#gR)" d="M12 2C8 2 6 5 6 8c0 3 2.500 5.500 6 8 3.500-2.500 6-5 6-8 0-3-2-6-6-6z" opacity="0"/><path fill="url(#gR)" d="M12 2.500c-3.500 0-6 2.500-6 5.500 0 3 3 5 6 8 3-3 6-5 6-8 0-3-2.500-5.500-6-5.500z"/><path fill="url(#gK)" d="M12 2.500c-3.500 0-6 2.500-6 5.500 0 1.500.8 2.800 2 4C8 9 8 6 12 4z" opacity=".7"/><path fill="url(#gR)" d="M8.500 15l-3.500 7 4.500-2.500 2.500-4zM15.500 15l3.500 7-4.500-2.500-2.500-4z"/><path fill="rgba(40,20,70,.2)" d="M12 2.500c3.500 0 6 2.500 6 5.500 0 3-3 5-6 8 2-4 2-9 0-13.500z" opacity=".25"/><ellipse cx="12" cy="7.500" rx="2.400" ry="2.800" fill="#fff" opacity=".35"/>
</svg>
